<svg version="1.1" id="Layer_1" xmlns="http://www.w3.org/2000/svg" xmlns:xlink="http://www.w3.org/1999/xlink" x="0px" y="0px"
	 width="100%" viewBox="0 0 304 352" enable-background="new 0 0 304 352" xml:space="preserve">
<path fill="#000000" opacity="1.000000" stroke="none" 
	d="
M86.913254,207.054260 
	C77.272377,206.802414 68.111214,206.650391 58.958637,206.283875 
	C42.859375,205.639175 31.258198,190.765640 34.055454,174.827866 
	C35.217224,168.208496 37.889278,162.102966 39.768654,155.733047 
	C40.588203,152.955307 40.987251,150.188568 40.710232,147.364731 
	C40.372189,143.918854 38.917110,141.279755 34.955997,141.032257 
	C33.191479,140.922028 31.565868,140.570999 31.257996,138.449158 
	C30.988546,136.592102 31.993568,135.287384 33.329483,134.165817 
	C37.604420,130.576767 44.551331,131.691177 48.292313,136.800140 
	C52.370956,142.370224 53.253792,148.646317 51.729172,155.315979 
	C50.062965,162.605042 46.821987,169.434097 45.611473,176.871002 
	C44.282707,185.034393 49.174011,191.832794 57.158886,192.171539 
	C58.581646,188.022507 56.516670,184.091492 56.132801,180.085510 
	C55.348915,171.904968 55.357548,163.830627 57.465580,155.806717 
	C61.096741,141.985291 69.907806,133.143982 83.886620,131.150558 
	C95.632339,129.475586 99.226891,122.863625 99.616035,111.355782 
	C99.806976,105.709343 99.217331,100.017448 100.893593,94.482376 
	C103.343445,86.392883 108.860039,80.350937 114.372337,74.319794 
	C115.538101,73.044304 117.106911,72.269875 118.882515,72.985062 
	C120.892395,73.794617 121.458069,75.700317 121.226631,77.531883 
	C120.639053,82.181808 122.880852,84.428268 126.978661,86.054749 
	C130.505692,87.454681 133.633621,89.828049 137.045578,91.559021 
	C140.487823,93.305367 141.053726,95.684845 139.245728,98.912956 
	C136.535263,103.752350 133.055084,107.554443 127.190056,108.450768 
	C125.777687,108.666603 124.219994,108.803871 123.081543,110.024544 
	C123.197258,112.587097 125.041489,114.180908 126.402863,116.010391 
	C134.922272,127.459160 135.818588,136.869980 127.958313,148.732544 
	C120.347580,160.218491 122.135048,172.634995 122.809502,185.005783 
	C123.059624,189.593475 123.994247,194.227646 125.945549,198.537674 
	C127.164024,201.229050 128.120209,204.033783 124.683578,205.894897 
	C121.569443,207.581375 115.968773,206.212326 114.573105,203.222900 
	C113.100586,200.068832 112.120392,196.685333 110.917511,193.404861 
	C108.626045,187.155670 106.353882,180.899155 104.010765,174.669357 
	C103.609619,173.602783 102.896042,172.653732 102.345390,171.683167 
	C100.257683,171.387924 101.164421,173.979691 99.198860,174.146118 
	C95.779900,171.348557 92.380180,167.625320 86.678131,166.747040 
	C99.042976,175.210983 105.145317,179.752441 97.129433,198.016449 
	C97.478638,199.171341 98.616837,199.228439 99.469063,199.653809 
	C101.021805,200.428802 101.631592,201.709854 101.434929,203.341324 
	C101.221825,205.109100 99.858910,205.956787 98.334633,206.137146 
	C94.703247,206.566849 91.044525,206.765503 86.913254,207.054260 
z"/>
<path fill="#000000" opacity="1.000000" stroke="none" 
	d="
M143.798584,152.999695 
	C143.763748,141.342300 143.669449,130.184708 143.711456,119.027634 
	C143.745010,110.112373 148.435974,105.612747 157.360382,105.633049 
	C177.176987,105.678123 196.994736,105.836105 216.809937,105.680756 
	C231.454559,105.565941 246.094574,104.954056 260.739075,104.706573 
	C270.430145,104.542786 274.787567,108.865074 275.325195,118.372978 
	C276.517853,139.466385 276.758545,160.583115 277.066711,181.698792 
	C277.215088,191.865021 272.774719,196.366760 262.557373,196.281738 
	C251.904922,196.193085 241.254074,195.923569 230.601837,195.785095 
	C229.479935,195.770523 228.353485,196.106003 227.064835,196.304382 
	C226.297913,200.838623 229.686386,203.275223 232.690781,207.358841 
	C217.393127,208.877121 203.224701,207.327637 188.435379,207.426102 
	C189.928101,203.402084 192.463058,200.654602 192.006210,197.003143 
	C190.332077,195.647675 188.433563,196.234009 186.674576,196.232925 
	C176.016617,196.226410 165.358368,196.362274 154.700729,196.320221 
	C147.849533,196.293182 143.831146,192.372711 143.757736,185.473251 
	C143.644348,174.816757 143.772339,164.157684 143.798584,152.999695 
M154.449661,167.076141 
	C155.894028,177.706375 153.196045,176.926193 165.538956,176.969193 
	C197.353027,177.080048 229.174530,176.077454 260.979614,177.545547 
	C264.013062,177.685577 265.723511,176.664581 265.713531,173.337326 
	C265.668488,158.343842 265.679016,143.350128 265.709625,128.356567 
	C265.714996,125.729408 264.865875,124.626511 261.921326,124.491493 
	C244.951889,123.713387 228.004318,125.669960 211.015015,124.457588 
	C193.913666,123.237213 176.769958,123.015411 159.603577,123.803200 
	C155.247543,124.003105 154.243729,125.181778 154.306610,129.157593 
	C154.501602,141.483917 154.411850,153.814743 154.449661,167.076141 
M209.547028,189.443146 
	C211.746445,188.908020 213.306229,187.728882 212.110916,185.349777 
	C211.464050,184.062302 209.660614,184.150284 208.629288,184.999084 
	C206.930191,186.397415 206.855133,188.033020 209.547028,189.443146 
M233.091797,115.214195 
	C231.371979,113.796700 229.724365,113.788490 228.625473,115.839935 
	C228.014389,116.980743 228.497192,118.250427 229.906860,118.490822 
	C231.883804,118.827950 233.628784,118.519737 233.091797,115.214195 
M260.406647,114.628624 
	C258.486816,114.967537 257.166412,115.982109 258.078613,117.987030 
	C258.652832,119.249153 260.286499,119.770775 261.520660,118.841583 
	C263.458588,117.382553 262.481506,116.006393 260.406647,114.628624 
M243.055008,115.484955 
	C241.592621,114.260208 240.315643,114.290077 239.587219,116.205963 
	C239.194061,117.240021 239.577682,118.332680 240.745895,118.520111 
	C242.516586,118.804199 243.648117,118.076393 243.055008,115.484955 
z"/>
<path fill="#000000" opacity="1.000000" stroke="none" 
	d="
M71.888710,273.055695 
	C67.193741,263.368317 62.683796,254.009262 58.173851,244.650192 
	C57.612370,256.182648 55.597710,267.514557 58.869564,279.175629 
	C51.639179,279.175629 45.192825,279.193634 38.746677,279.165405 
	C36.618118,279.156097 35.771332,277.828705 35.928596,275.891663 
	C37.587509,255.458603 36.053913,234.971390 37.006493,214.527786 
	C37.012714,214.394241 37.187424,214.268539 37.535236,213.800018 
	C44.549870,213.800018 51.824551,213.823853 59.098919,213.786774 
	C61.565960,213.774200 62.508671,215.521637 63.472214,217.297485 
	C68.067055,225.765976 72.655663,234.237869 77.659294,243.470200 
	C81.372803,236.733109 85.339539,230.816422 88.016754,224.364639 
	C91.586960,215.760818 97.040245,212.711426 106.437912,213.519547 
	C118.158638,214.527466 118.227135,213.804169 118.265350,225.514725 
	C118.303925,237.336044 118.247345,249.158432 118.399178,260.978210 
	C118.458771,265.618073 118.936714,270.254669 119.288986,274.887848 
	C119.522453,277.958466 118.535034,279.545380 115.103218,279.354095 
	C111.120209,279.132111 107.103905,279.126465 103.122383,279.365540 
	C99.121857,279.605743 97.834198,277.783234 97.875069,274.052643 
	C97.980782,264.401550 97.910507,254.748535 97.424034,244.953506 
	C91.491875,255.373978 85.188095,265.520935 81.918037,277.417542 
	C77.923401,277.732697 74.355743,277.240570 71.888710,273.055695 
z"/>
<path fill="#000000" opacity="1.000000" stroke="none" 
	d="
M276.084229,241.000519 
	C276.062103,252.160416 275.917908,262.822418 276.089142,273.479309 
	C276.157501,277.734436 274.660217,278.911407 270.341980,279.370941 
	C258.895447,280.589020 250.177795,277.924011 243.136887,267.768219 
	C237.623444,259.815674 230.330505,253.018524 224.704269,244.768600 
	C225.162369,256.153503 224.244720,267.484558 226.177826,279.132416 
	C218.489334,279.132416 211.421585,279.132416 204.263153,279.132416 
	C202.754410,274.027679 204.135986,269.281403 204.437775,264.422577 
	C205.097244,253.806030 205.005936,243.121735 204.359177,232.466187 
	C204.056793,227.484039 204.145065,222.479340 203.939713,217.489655 
	C203.823746,214.671860 205.049698,213.634796 207.802383,213.721252 
	C212.795334,213.878067 217.795166,213.918579 222.790344,213.858551 
	C225.373032,213.827530 226.584763,215.619781 228.012115,217.220703 
	C236.851807,227.135208 244.408051,238.156464 254.861450,248.301727 
	C253.480423,236.524750 255.320953,225.688568 254.178360,213.576279 
	C261.002899,213.576279 267.564423,213.412018 274.110443,213.659119 
	C276.642212,213.754700 276.267029,216.267166 276.265717,218.015808 
	C276.260071,225.510773 276.156494,233.005646 276.084229,241.000519 
z"/>
<path fill="#000000" opacity="1.000000" stroke="none" 
	d="
M170.503372,241.374817 
	C168.798660,242.991592 167.330399,244.333618 165.635208,245.883072 
	C167.470901,248.974899 169.419556,251.916092 172.306091,254.102783 
	C177.268509,251.294220 174.868118,246.162445 176.465851,241.753387 
	C182.947906,243.185257 189.515579,242.401138 197.223206,243.017990 
	C192.490738,248.645309 189.661575,254.224594 186.133179,259.343811 
	C183.953430,262.506348 184.292694,264.699463 187.310043,266.884094 
	C190.355865,269.089294 193.268723,271.478180 196.750397,274.183228 
	C193.406860,275.584717 190.874741,277.362244 188.201401,278.759491 
	C184.189209,280.856506 180.087875,280.481659 176.843521,276.876373 
	C174.717621,274.513916 173.001419,274.183167 170.128357,276.280029 
	C161.860352,282.314301 145.785599,282.054688 137.440994,276.204834 
	C129.014404,270.297485 127.388977,260.180420 133.286484,251.630035 
	C135.780945,248.013504 139.679611,245.879913 142.271942,242.760696 
	C142.363464,241.120834 141.303635,240.392120 140.718658,239.422012 
	C135.954865,231.522018 137.044556,223.573044 143.764206,217.290909 
	C148.973083,212.421173 159.462799,211.108093 166.319275,214.467453 
	C172.634064,217.561401 175.943542,223.580780 175.391449,230.781281 
	C175.082901,234.805496 172.849533,237.913437 170.503372,241.374817 
M160.213623,261.125183 
	C158.272125,259.066010 156.299377,257.035095 154.402069,254.935959 
	C153.427246,253.857452 152.459778,253.086792 150.965424,253.925644 
	C148.677551,255.209961 147.017380,257.080414 146.482269,259.640289 
	C146.003220,261.931976 147.688614,263.310211 149.258194,264.586182 
	C152.822556,267.483795 156.645462,267.121155 160.522186,265.345245 
	C162.930084,264.242188 162.162292,262.905914 160.213623,261.125183 
M152.325119,228.822845 
	C151.930176,231.897369 153.749527,233.799500 156.003769,235.295364 
	C157.132263,236.044205 158.221191,235.173569 159.034958,234.309418 
	C161.268295,231.937851 161.775604,229.231491 159.406662,226.843826 
	C156.767624,224.183929 154.375717,225.315155 152.325119,228.822845 
z"/>
<path fill="#000000" opacity="1.000000" stroke="none" 
	d="
M161.326752,56.391644 
	C169.096573,58.800636 175.956619,67.966644 175.784073,75.253586 
	C175.662766,80.377159 166.107666,86.362831 160.864197,84.607956 
	C159.614456,84.189697 158.376953,83.614471 157.090118,83.446785 
	C147.818069,82.238594 143.638916,77.177429 144.736816,68.355919 
	C145.652557,60.998074 153.117325,55.445419 161.326752,56.391644 
z"/>
<path fill="#000000" opacity="1.000000" stroke="none" 
	d="
M47.917030,111.988243 
	C42.964039,105.557678 44.002544,97.910156 50.121864,93.337418 
	C54.043575,90.406876 62.888737,92.588425 66.621628,97.406868 
	C70.891884,102.918976 67.127464,112.817329 60.841217,115.500130 
	C55.168430,117.921127 51.958858,115.020630 47.917030,111.988243 
M57.665916,105.117477 
	C56.926388,101.312813 55.013821,102.343613 51.968307,103.523872 
	C54.172882,105.275513 55.034214,107.493607 57.665916,105.117477 
z"/>
<path fill="#000000" opacity="1.000000" stroke="none" 
	d="
M57.809784,294.536255 
	C57.625198,305.151550 48.181198,311.555908 38.626137,308.080475 
	C36.729839,307.390778 36.749023,305.995056 36.751774,304.499420 
	C36.761562,299.183929 36.829659,293.868408 36.812801,288.553101 
	C36.807594,286.910797 37.118206,285.752563 38.953415,285.172485 
	C46.245129,282.867584 55.078453,287.041260 57.809784,294.536255 
M43.264297,296.518646 
	C43.502563,298.230988 42.559021,300.438538 44.593533,301.440857 
	C46.480824,302.370605 48.541893,301.943756 50.095997,300.454041 
	C51.843891,298.778564 52.056221,296.689178 50.990093,294.547577 
	C49.852943,292.263367 48.003662,290.990387 45.388206,291.363953 
	C42.707184,291.746918 43.502621,293.997162 43.264297,296.518646 
z"/>
<path fill="#000000" opacity="1.000000" stroke="none" 
	d="
M142.570648,294.803650 
	C146.578888,295.385773 152.000000,293.083832 152.100555,299.908722 
	C152.138855,302.507935 152.678558,305.693237 149.750473,307.008667 
	C145.715698,308.821198 141.325409,309.246796 137.167404,307.259338 
	C131.247894,304.429962 128.782303,297.881653 131.288193,292.250122 
	C134.278641,285.529602 140.303421,282.636383 146.734039,285.051910 
	C149.046188,285.920410 151.395111,287.143646 150.763199,290.367218 
	C148.803284,291.960480 146.903793,290.860260 144.978806,290.563110 
	C140.451065,289.864258 137.295212,292.366180 137.116043,296.674316 
	C136.949020,300.690094 139.264740,302.639008 144.304062,302.591003 
	C145.085754,299.639160 138.275726,298.629425 142.570648,294.803650 
z"/>
<path fill="#000000" opacity="1.000000" stroke="none" 
	d="
M269.980255,285.543030 
	C274.366272,287.255463 278.020538,288.985931 274.936218,294.339417 
	C274.121979,295.752686 275.212891,296.837769 275.972382,297.919373 
	C278.652374,301.736176 276.981689,304.678894 273.690643,306.711609 
	C269.637573,309.214966 264.995117,308.426483 260.547302,307.977509 
	C258.529663,307.773865 258.708923,305.881012 258.695831,304.430908 
	C258.653809,299.777405 258.987640,295.100586 258.628174,290.475372 
	C258.258057,285.713165 260.203278,284.112823 264.654327,284.786407 
	C266.290894,285.034058 267.937866,285.213379 269.980255,285.543030 
M265.353729,289.988403 
	C264.386810,290.883545 263.928131,292.151184 265.018341,292.928680 
	C266.714050,294.137970 268.624695,294.120789 270.287323,292.447601 
	C269.804443,289.874390 268.080780,289.447266 265.353729,289.988403 
M266.090027,302.669617 
	C268.081848,302.849213 270.070160,303.022888 270.507324,300.088196 
	C268.607025,299.046692 266.736542,298.159088 264.951996,299.486725 
	C263.905243,300.265442 264.391907,301.588989 266.090027,302.669617 
z"/>
<path fill="#000000" opacity="1.000000" stroke="none" 
	d="
M174.247467,304.755219 
	C172.007553,302.091217 169.982254,299.711609 167.678619,297.005005 
	C165.916595,299.698425 166.581787,302.236206 166.344559,304.603210 
	C166.196854,306.076996 166.364334,307.816132 164.283493,308.011719 
	C162.281601,308.199829 160.976074,307.035065 160.924683,305.134857 
	C160.762726,299.147095 160.379166,293.114868 160.920563,287.176361 
	C161.280380,283.229767 164.136032,284.903412 166.018402,286.304352 
	C168.921814,288.465179 170.472107,292.101746 174.283356,294.034241 
	C174.747238,291.622406 175.205246,289.421539 175.584030,287.207123 
	C175.828674,285.776917 176.271500,284.574707 177.997604,284.604736 
	C179.773529,284.635620 180.182434,285.913513 180.188934,287.340759 
	C180.219101,293.959229 180.202271,300.577911 180.202271,307.089325 
	C177.259766,308.412323 175.829239,306.805054 174.247467,304.755219 
z"/>
<path fill="#000000" opacity="1.000000" stroke="none" 
	d="
M248.992004,304.062500 
	C249.279739,305.643860 250.324768,307.141296 248.547684,307.897552 
	C247.065720,308.528229 245.737030,308.076599 244.547028,306.794769 
	C240.055908,301.956970 236.980453,301.982300 232.866318,306.839844 
	C231.543472,308.401733 229.960663,308.355682 228.351501,307.749817 
	C226.349533,306.996094 226.819839,305.419434 227.501740,304.009918 
	C230.679169,297.442139 233.905350,290.897949 237.603226,283.346466 
	C244.144073,289.125946 245.289246,297.142303 248.992004,304.062500 
z"/>
<path fill="#000000" opacity="1.000000" stroke="none" 
	d="
M69.445374,307.842072 
	C68.171829,307.637207 67.171341,307.473236 66.999458,306.572388 
	C65.746460,300.005280 65.948875,293.348206 65.958420,286.709991 
	C65.960022,285.593536 66.852005,284.875153 67.946693,284.850769 
	C71.932999,284.761810 75.922264,284.708832 79.908722,284.764069 
	C81.883827,284.791443 82.348900,286.175537 82.149254,287.881012 
	C81.959755,289.499817 80.994553,290.177643 79.403946,290.030701 
	C79.238503,290.015411 79.073952,289.989502 78.909386,289.965790 
	C76.591560,289.631378 73.148880,287.974884 72.798737,291.500946 
	C72.479729,294.713440 76.415321,293.998840 78.632683,294.584534 
	C79.967613,294.937134 81.407608,294.910492 81.280975,296.786652 
	C81.136566,298.926392 79.681580,298.921417 78.031151,298.684540 
	C76.080162,298.404480 73.532738,297.784546 73.503227,300.793976 
	C73.476929,303.476227 76.079384,302.864166 77.756683,302.904205 
	C80.887985,302.979034 83.009087,303.781860 82.214516,307.730103 
	C78.110703,308.893982 73.990204,307.998230 69.445374,307.842072 
z"/>
<path fill="#000000" opacity="1.000000" stroke="none" 
	d="
M96.182922,297.853149 
	C92.228844,295.708282 89.317413,293.187012 91.458527,288.630249 
	C93.085732,285.167145 100.718285,283.173462 103.914543,285.064056 
	C105.551064,286.032074 106.084160,287.604584 105.443680,289.339081 
	C104.830177,291.000519 103.419479,290.799866 102.099030,290.244720 
	C100.482910,289.565277 98.956100,289.100311 97.640892,291.252594 
	C98.877296,293.646606 101.558060,294.024933 103.548355,295.294342 
	C106.325569,297.065643 108.213257,299.330780 106.953674,302.713562 
	C105.703079,306.072235 103.664497,309.095215 99.584908,309.168701 
	C95.904366,309.235016 92.694283,307.655884 90.851906,304.399323 
	C89.840965,302.612427 90.730667,301.123840 93.090179,301.290833 
	C93.904861,301.348511 94.695290,301.695801 95.506805,301.861938 
	C97.332985,302.235779 99.587151,305.482819 100.868683,302.181580 
	C102.098801,299.012787 98.160629,299.280182 96.182922,297.853149 
z"/>
<path fill="#000000" opacity="1.000000" stroke="none" 
	d="
M151.447388,34.838249 
	C157.703171,37.280495 160.215286,40.991493 158.799622,45.130287 
	C157.347214,49.376461 150.785187,52.410519 145.917465,51.249069 
	C144.082489,50.811241 143.481735,49.566887 143.358765,48.059517 
	C143.077133,44.607414 142.415573,41.049034 142.949432,37.699772 
	C143.755234,32.644630 148.140686,35.335106 151.447388,34.838249 
z"/>
<path fill="#000000" opacity="1.000000" stroke="none" 
	d="
M87.176292,71.029663 
	C88.287788,74.953247 91.529732,79.293335 84.357574,80.136986 
	C83.990120,80.180214 83.397820,80.724434 83.390350,81.046547 
	C83.304306,84.752815 81.114449,85.099236 78.342987,84.116646 
	C74.398529,82.718216 70.555870,80.947777 68.969337,76.691406 
	C68.392509,75.143860 69.976631,74.479988 71.349205,74.159531 
	C72.801651,73.820419 74.182739,75.295135 75.666321,74.354836 
	C76.274040,72.839714 73.698494,72.450523 73.909378,72.058975 
	C75.711105,68.255539 79.376480,72.131645 80.227516,68.830460 
	C80.750862,66.800362 80.828300,64.655319 81.160309,62.152119 
	C84.851311,64.151550 85.244186,67.902626 87.176292,71.029663 
z"/>
<path fill="#000000" opacity="1.000000" stroke="none" 
	d="
M208.984863,285.369507 
	C211.273315,288.967712 210.241669,292.691406 210.194000,296.249908 
	C210.141953,300.134430 211.065063,302.357025 215.427246,301.857269 
	C216.385864,301.747437 217.426208,301.942963 218.370773,302.206360 
	C220.144836,302.701080 220.442169,304.176727 220.413757,305.759979 
	C220.382874,307.480835 219.271271,308.029999 217.774368,308.037048 
	C213.645355,308.056458 209.516190,308.043732 205.118393,308.043732 
	C203.743683,301.501129 203.955704,295.071045 204.130035,288.650635 
	C204.208176,285.773285 206.182037,285.165649 208.984863,285.369507 
z"/>
<path fill="#000000" opacity="1.000000" stroke="none" 
	d="
M233.224792,70.204628 
	C234.087463,69.397400 234.673859,68.808411 235.305878,68.273315 
	C236.572418,67.201012 237.872284,65.903801 239.695435,66.769859 
	C241.283661,67.524323 241.200638,69.187332 241.291000,70.683701 
	C241.349716,71.655708 241.459991,72.624603 241.577362,73.931114 
	C244.656738,73.387062 247.640182,71.263077 250.885941,74.294174 
	C248.032608,78.568352 244.090317,81.490921 240.088135,84.283722 
	C238.409134,85.455345 237.334900,84.331017 236.834137,82.617188 
	C236.326935,80.881264 235.816315,79.146339 235.377747,77.651443 
	C234.025406,76.683846 233.310272,77.765923 232.420639,78.001762 
	C231.092255,78.353912 229.673584,78.530609 228.820541,77.208473 
	C227.870575,75.736107 229.159302,74.748978 229.970093,73.763695 
	C230.916122,72.614059 231.964935,71.549011 233.224792,70.204628 
z"/>
<path fill="#000000" opacity="1.000000" stroke="none" 
	d="
M111.985001,44.716263 
	C117.812363,43.529099 121.733490,47.083012 122.810081,54.077904 
	C123.306938,57.306133 119.316101,61.372528 115.165894,61.865089 
	C114.840103,61.903755 114.410278,62.083118 114.201637,61.941841 
	C109.819916,58.974823 109.821022,53.675194 107.801056,49.473797 
	C106.305550,46.363255 109.745956,45.930920 111.985001,44.716263 
z"/>
<path fill="#000000" opacity="1.000000" stroke="none" 
	d="
M216.190857,68.953018 
	C212.464493,65.090919 211.637604,60.548592 213.838013,57.619919 
	C216.214676,54.456615 223.759064,52.955830 227.154739,55.085098 
	C227.931000,55.571869 228.852219,56.502129 228.935150,57.307682 
	C229.386261,61.690609 226.497116,64.739647 224.076477,67.793892 
	C222.169556,70.199928 219.449387,70.956337 216.190857,68.953018 
M222.942978,60.569698 
	C221.951004,59.647419 220.966080,57.770832 219.622147,59.953350 
	C218.902664,61.121746 219.356400,62.692284 220.765961,63.237331 
	C222.581604,63.939404 223.600098,63.198536 222.942978,60.569698 
z"/>
<path fill="#000000" opacity="1.000000" stroke="none" 
	d="
M105.369698,66.137207 
	C97.972321,72.337433 97.972321,72.337433 93.201828,64.837784 
	C87.642395,56.097836 88.260727,54.673119 98.635559,52.368595 
	C98.938721,52.301258 99.281937,52.414288 99.640030,52.446213 
	C101.970139,54.934761 98.595650,56.068859 98.211288,58.127678 
	C102.670334,57.081772 102.553894,59.704601 101.751678,62.538368 
	C103.395279,63.528568 107.158554,61.712624 105.369698,66.137207 
z"/>
<path fill="#000000" opacity="1.000000" stroke="none" 
	d="
M176.348907,49.371056 
	C174.148438,54.213215 170.880112,50.734100 168.217468,50.700657 
	C165.601913,50.667797 165.565536,48.247360 165.817322,46.166061 
	C166.015274,44.529766 166.708420,42.817360 166.418533,41.282932 
	C165.455414,36.185432 167.882202,35.419743 172.198486,35.868645 
	C178.060638,36.478313 178.031021,36.385109 176.695236,42.099873 
	C176.181610,44.297249 176.471848,46.682514 176.348907,49.371056 
z"/>
<path fill="#000000" opacity="1.000000" stroke="none" 
	d="
M184.259552,50.460205 
	C185.175674,50.692043 185.806305,50.869640 186.472916,51.057369 
	C187.167694,49.752316 186.207367,48.817276 185.734833,47.878593 
	C184.511887,45.449265 184.030670,43.062202 186.404999,41.166203 
	C188.970169,39.117817 191.935974,39.171261 194.792969,40.550957 
	C195.598740,40.940075 196.318893,41.875214 196.691422,42.728771 
	C198.276291,46.360062 193.834549,55.025745 189.977798,56.009747 
	C186.050171,57.011826 183.236603,54.385700 184.259552,50.460205 
z"/>
<path fill="#000000" opacity="1.000000" stroke="none" 
	d="
M116.622177,292.431030 
	C116.615486,290.015289 116.615486,288.045563 116.615486,285.867798 
	C120.524742,284.915833 122.535835,285.720886 122.358727,290.028259 
	C122.167183,294.686646 122.344910,299.359222 122.292725,304.024841 
	C122.272484,305.834503 122.451180,307.922546 119.729935,308.016815 
	C116.715958,308.121216 116.810722,305.889313 116.764389,303.874359 
	C116.680122,300.209473 116.669960,296.542877 116.622177,292.431030 
z"/>
<path fill="#000000" opacity="1.000000" stroke="none" 
	d="
M207.241608,46.815300 
	C210.153839,46.858002 210.290680,48.160000 209.386551,50.091419 
	C208.047363,52.952183 206.668472,55.801094 205.497955,58.731522 
	C204.801834,60.474224 204.048279,61.867775 201.921356,61.047466 
	C199.825775,60.239254 199.178558,58.528645 200.203156,56.602562 
	C202.054199,53.122921 203.491852,49.323231 207.241608,46.815300 
z"/>
<path fill="#000000" opacity="1.000000" stroke="none" 
	d="
M199.341736,82.299118 
	C200.911407,83.207870 202.034760,84.295616 200.439972,85.454796 
	C198.818314,86.633507 196.672928,86.810173 194.796097,85.951393 
	C193.419357,85.321434 193.254562,83.790359 193.741516,82.501785 
	C194.375641,80.823761 195.854980,81.330711 197.134155,81.600540 
	C197.776031,81.735931 198.398575,81.962906 199.341736,82.299118 
z"/>
<path fill="#000000" opacity="1.000000" stroke="none" 
	d="
M237.547409,162.974640 
	C234.982010,164.084137 232.663559,164.142715 230.320206,164.212555 
	C223.201080,164.424728 216.088196,163.036621 208.958374,164.267303 
	C205.414612,164.878998 204.195557,163.005676 203.465988,159.582520 
	C202.243164,153.844894 204.242554,148.303802 203.544128,142.636047 
	C203.198486,148.801422 201.141342,154.508652 198.950500,160.176926 
	C198.235245,162.027527 197.714798,164.103394 195.125610,164.172363 
	C192.480225,164.242859 192.032181,162.054535 191.185974,160.300720 
	C190.408936,158.690247 190.268616,156.750671 188.691254,155.474091 
	C186.804077,156.202545 187.340225,157.961502 187.166611,159.274139 
	C186.688553,162.888916 183.882782,163.764725 181.120590,164.250778 
	C177.859177,164.824707 177.436569,161.901169 176.910248,159.746490 
	C175.142563,152.509750 173.571915,145.224869 171.940201,138.021698 
	C178.163361,135.495026 178.562637,135.833084 182.149338,146.465439 
	C183.006851,144.121460 183.720200,142.001343 184.558487,139.931854 
	C185.279419,138.152115 186.347916,136.664291 188.591583,136.876816 
	C190.500763,137.057648 191.469467,138.371429 192.094101,140.016388 
	C192.735886,141.706573 193.355209,143.405319 194.002090,145.148087 
	C194.526932,144.908310 194.948578,144.844269 194.995560,144.675766 
	C197.398712,136.056992 197.396240,135.978043 206.698425,136.089981 
	C215.351318,136.194107 224.013107,136.285873 232.650146,136.761322 
	C240.035477,137.167877 242.512177,141.886261 239.068726,148.245773 
	C242.972519,154.294205 242.731064,157.323914 237.547409,162.974640 
M215.379211,145.053238 
	C214.149780,145.452057 212.514130,144.767319 211.441330,146.284210 
	C214.072662,147.546387 218.216476,144.757126 218.763199,149.724319 
	C219.603149,157.355637 211.923599,153.056488 209.155090,156.707260 
	C211.915253,156.707260 214.215836,156.713745 216.516357,156.705276 
	C218.478592,156.698044 219.673035,155.884018 219.662552,153.745239 
	C219.644257,150.010712 219.657471,146.276047 219.657471,142.541428 
	C218.256622,143.647476 217.436356,144.623291 215.379211,145.053238 
M232.897522,155.036316 
	C233.758377,152.878250 232.271744,152.435120 230.735855,152.324432 
	C228.772308,152.182938 227.180481,152.740723 227.300674,155.253983 
	C228.983459,156.485977 230.689468,155.981934 232.897522,155.036316 
z"/>
</svg>