<svg version="1.1" id="Layer_1" xmlns="http://www.w3.org/2000/svg" xmlns:xlink="http://www.w3.org/1999/xlink" x="0px" y="0px"
	 width="100%" viewBox="0 0 336 352" enable-background="new 0 0 336 352" xml:space="preserve">
<path fill="#000000" opacity="1.000000" stroke="none" 
	d="
M312.696686,150.005966 
	C315.076111,154.516434 314.649902,155.513107 310.445435,155.259216 
	C307.647125,155.090256 304.838898,154.514832 302.113403,153.815994 
	C293.297668,151.555557 284.222443,152.146942 275.255890,151.006409 
	C286.813782,156.359833 298.295074,161.599686 309.371429,168.093872 
	C307.153748,171.733124 304.688934,171.049255 302.331085,170.345657 
	C295.600830,168.337357 289.476837,164.884277 283.088623,162.066803 
	C279.737274,160.588730 277.871765,160.883743 275.266052,164.107101 
	C265.350708,176.372696 251.827682,179.675568 236.705978,177.980133 
	C231.692947,177.418076 227.002747,175.679932 222.429123,173.647217 
	C216.464310,170.996170 211.692474,167.056152 209.219116,160.531952 
	C203.828568,162.038925 199.498169,165.281265 194.631027,167.321564 
	C192.485352,168.221039 190.472748,169.433228 188.350159,170.393921 
	C186.731171,171.126633 184.677872,172.475876 183.440231,170.435791 
	C182.091095,168.211884 184.129013,166.726639 185.792404,165.645584 
	C193.202530,160.829636 200.982773,156.672256 208.981873,152.921936 
	C210.166458,152.366547 211.363815,151.838348 213.942032,150.668137 
	C206.749191,149.283981 201.203827,151.251343 195.646423,151.843735 
	C191.541504,152.281296 187.541550,153.657135 183.475494,154.524353 
	C181.356659,154.976257 178.633621,156.723236 177.567383,153.347397 
	C176.548965,150.122894 179.522369,149.473221 181.640762,148.820953 
	C189.907578,146.275543 198.276047,144.105560 206.827423,142.708984 
	C208.511917,142.433884 210.612564,143.003036 211.486481,140.266525 
	C206.988693,140.266525 202.639999,140.106995 198.306580,140.296661 
	C185.728378,140.847183 180.545090,134.733719 183.264008,122.229645 
	C184.400833,117.001442 186.275696,111.962639 189.074677,107.432785 
	C191.420425,103.636444 191.799881,99.857178 191.398193,95.538330 
	C190.087875,81.449814 190.898193,67.331711 190.780090,53.445545 
	C193.610367,52.015137 195.497940,53.352283 197.430344,54.175549 
	C207.832291,58.607113 216.799774,65.183144 224.989334,72.865631 
	C226.978012,74.731148 228.594452,75.499695 231.504990,74.254440 
	C239.932053,70.648964 248.758698,70.501976 257.352875,73.505165 
	C261.449829,74.936813 264.285431,74.185852 267.226440,71.348076 
	C274.861176,63.981384 283.734314,58.454353 293.461914,54.275963 
	C295.105896,53.569809 296.670563,52.398914 298.567688,53.114094 
	C299.555359,53.918434 299.376587,54.970856 299.346649,55.938141 
	C298.863159,71.553452 300.640167,87.247345 297.783386,102.776382 
	C297.336761,105.204269 298.903656,106.858864 299.629639,108.841911 
	C301.991669,115.294090 306.485443,121.535133 303.414948,128.785690 
	C298.708771,139.898590 300.788910,140.534775 288.176025,140.045517 
	C284.462494,139.901474 280.683289,139.470291 277.008667,141.235123 
	C288.593903,145.180435 300.943329,145.618744 312.696686,150.005966 
M278.668304,113.240654 
	C278.656616,112.097481 278.988800,110.720711 277.863007,110.028900 
	C275.742249,108.725662 273.332031,109.264038 271.092682,109.614632 
	C268.915863,109.955429 269.419922,112.046349 268.993958,113.591606 
	C268.186737,116.519951 269.704468,120.881851 264.577118,121.663399 
	C262.790680,118.394562 264.307800,115.009285 263.614441,111.861076 
	C259.120819,113.191521 253.839676,119.666733 253.594803,123.861694 
	C253.478088,125.860741 254.731430,126.273209 256.315033,126.681046 
	C267.906586,129.666336 275.109192,125.601303 278.668304,113.240654 
M212.036835,123.479790 
	C217.023987,128.740753 222.972885,128.309738 229.154419,126.328568 
	C230.450531,125.913162 231.566879,125.288086 231.491409,123.551987 
	C231.323532,119.690437 225.596771,113.124336 221.623108,112.393318 
	C220.094467,115.474197 222.710205,119.356934 219.803101,122.449432 
	C216.128525,120.526611 216.577484,117.148827 216.639984,114.156097 
	C216.723236,110.170052 214.976959,108.736115 211.176727,109.258316 
	C207.179779,109.807549 207.031845,112.555153 207.603333,115.567871 
	C208.140091,118.397476 209.421158,120.916328 212.036835,123.479790 
M240.265610,150.668289 
	C241.664597,153.012314 240.439270,156.211884 243.407425,159.351013 
	C244.910095,152.516785 246.301636,146.428101 250.573929,141.195724 
	C245.014236,141.663803 239.803955,139.378632 234.353409,141.054382 
	C235.497498,145.067276 238.949371,146.721405 240.265610,150.668289 
M278.764160,81.680695 
	C280.729889,85.498695 283.842438,88.100639 288.121429,91.243088 
	C288.589355,84.677795 289.882080,79.357758 289.113312,73.133873 
	C284.394836,74.989639 281.628479,77.945015 278.764160,81.680695 
M209.766068,79.509041 
	C206.954926,78.005997 205.983627,74.004837 201.616318,73.577347 
	C201.284286,79.206024 200.834885,84.504425 202.264786,90.922676 
	C205.740234,87.966698 208.541183,85.701744 211.199417,83.280128 
	C212.831039,81.793709 211.962006,80.660034 209.766068,79.509041 
z"/>
<path fill="#000000" opacity="1.000000" stroke="none" 
	d="
M60.372425,165.235641 
	C67.254021,162.649246 73.776245,160.208740 81.364288,157.369415 
	C75.104836,156.170929 70.236664,157.843750 65.365852,158.922638 
	C58.551968,160.431931 51.816048,162.290848 45.011974,163.848114 
	C42.682220,164.381332 40.153343,165.102615 36.813705,161.887299 
	C51.687496,155.764999 66.430908,151.640778 80.649109,145.976929 
	C65.331085,145.834137 50.728584,150.571136 35.538921,152.328613 
	C35.057274,149.398056 36.563900,148.477753 38.588707,147.737793 
	C42.819065,146.191803 47.135105,145.034622 51.626431,144.681686 
	C57.735668,144.201599 58.152828,143.620850 56.428383,137.667084 
	C48.616718,110.696815 47.317326,83.034920 47.708656,55.196636 
	C47.722458,54.214893 47.702614,53.182220 49.078274,51.994076 
	C55.570190,53.147099 61.272179,56.928974 66.925316,60.595039 
	C72.503227,64.212318 78.145615,67.830673 82.838600,72.630501 
	C84.927635,74.767097 86.940041,74.620819 89.589836,73.596237 
	C99.692146,69.690063 110.074951,69.358467 120.393372,72.529213 
	C124.064011,73.657158 126.852165,73.701866 130.029602,71.161873 
	C138.357193,64.504921 147.083008,58.379047 156.646347,53.554886 
	C162.328812,50.688400 163.140930,51.209408 163.333008,57.398342 
	C164.089584,81.774933 162.793320,105.953583 156.289139,129.605881 
	C155.105606,133.909805 153.324692,138.049454 151.635223,142.781189 
	C157.736343,146.119476 165.708817,145.328079 170.647293,151.401947 
	C157.557419,151.388367 145.434967,144.694626 132.309494,145.444733 
	C132.156006,145.905609 132.002518,146.366470 131.849030,146.827332 
	C138.337662,149.145355 144.869431,151.350677 151.302795,153.813110 
	C157.726013,156.271622 164.994873,157.213638 169.568146,163.468918 
	C156.346497,163.239594 144.483826,156.562607 131.156555,156.145691 
	C140.075684,160.777924 149.362503,164.052307 157.780487,169.100906 
	C160.039291,170.455627 162.508804,171.692764 162.063751,175.244461 
	C159.539139,176.054306 157.809464,174.500092 156.016281,173.546677 
	C149.979172,170.336823 143.803833,167.446854 137.373505,165.119431 
	C135.323624,164.377472 133.666779,163.860001 131.715515,166.161514 
	C116.784904,183.772156 100.389511,183.213730 84.802963,171.369293 
	C78.475945,166.561310 73.896004,164.295090 66.509384,168.568756 
	C61.119434,171.687225 54.711033,173.018707 49.128174,176.068497 
	C47.799072,176.794571 45.951546,178.113297 44.826210,175.880646 
	C43.931229,174.105011 45.575333,173.176682 46.818031,172.380737 
	C51.022240,169.687881 55.166664,166.868530 60.372425,165.235641 
M75.698685,125.872147 
	C81.522545,130.034302 87.643929,128.205856 94.511063,126.967903 
	C91.479881,122.085617 88.780327,117.789673 83.634171,114.716377 
	C83.478989,116.357513 83.428566,117.167007 83.321754,117.968987 
	C82.993683,120.432388 84.367889,124.448006 80.880051,124.582039 
	C77.477028,124.712814 78.287163,120.517166 77.939140,118.148811 
	C77.016968,111.873253 74.498283,110.625481 67.393120,113.765388 
	C68.781082,118.437401 70.992027,122.539803 75.698685,125.872147 
M121.850151,117.369453 
	C119.463898,120.200798 116.711357,122.849800 116.694603,126.955620 
	C131.504333,130.255127 141.932739,124.213669 141.138718,113.071518 
	C132.788315,112.250526 132.050888,112.836494 131.309189,120.882774 
	C131.263611,121.377258 131.261642,121.880219 131.166138,122.364799 
	C130.884247,123.795227 130.118652,124.931694 128.576843,124.908669 
	C126.736313,124.881180 126.831276,123.317719 126.646461,122.003944 
	C126.358688,119.958282 127.296692,117.702736 125.768723,115.901413 
	C124.373955,115.696640 123.409729,116.368126 121.850151,117.369453 
M151.792801,69.794487 
	C148.596878,72.745857 146.265656,76.383896 143.841583,79.933868 
	C138.065399,88.392883 138.090790,88.414841 145.950089,94.707932 
	C146.169754,94.883835 146.572495,94.831131 147.466232,94.982895 
	C152.554245,87.986130 153.418213,79.721214 153.600891,71.280655 
	C153.617935,70.492661 154.025818,69.065155 151.792801,69.794487 
M68.545708,92.928909 
	C69.920822,91.597687 71.913345,90.671494 71.198601,88.115250 
	C68.997086,80.241661 63.390961,74.897217 57.860680,69.382561 
	C57.980000,77.363472 58.004673,85.097824 62.266682,92.052338 
	C63.930206,94.766785 65.512764,95.557915 68.545708,92.928909 
M104.353310,156.511246 
	C104.265007,158.402893 104.176704,160.294525 104.086082,162.235916 
	C106.684265,162.270325 107.728668,161.073822 107.959259,158.960434 
	C108.393135,154.983917 108.918198,151.229523 112.734383,148.587341 
	C114.640121,147.267868 113.495087,145.527725 111.311951,145.348892 
	C108.185921,145.092804 105.036697,145.088074 101.896500,145.051926 
	C100.598656,145.037003 99.067673,144.921478 98.587318,146.551254 
	C98.148300,148.040741 99.174828,149.045151 100.221199,149.899765 
	C102.131531,151.459976 104.377045,152.764206 104.353310,156.511246 
z"/>
<path fill="#000000" opacity="1.000000" stroke="none" 
	d="
M63.095734,256.905823 
	C65.137741,259.211212 65.995140,269.370850 64.694443,271.102417 
	C63.610882,272.544891 61.983643,272.323090 60.555637,272.140411 
	C52.756897,271.142731 44.943104,271.245270 37.118866,271.606537 
	C36.623245,271.629425 35.909523,271.845795 35.663128,271.602142 
	C32.597710,268.570862 34.566299,264.733551 34.151917,261.272308 
	C33.913902,259.284180 34.624668,257.532715 37.155975,257.711914 
	C41.065125,257.988617 41.922035,255.757950 41.902996,252.427017 
	C41.832565,240.102692 41.727905,227.775757 41.916615,215.454086 
	C41.997227,210.190598 38.416210,211.942978 35.461945,211.986954 
	C34.041332,207.387115 35.041969,202.976151 34.876774,197.878662 
	C40.904652,197.878662 46.769833,198.613205 52.376141,197.721039 
	C63.032940,196.025116 69.065010,200.034897 72.386848,210.180237 
	C74.492371,216.610764 78.092064,222.555237 81.067245,228.695618 
	C81.839706,230.289886 82.237595,232.181702 84.263283,233.215286 
	C87.546387,230.406448 88.439743,226.165604 90.421265,222.630127 
	C94.244652,215.808380 97.793945,208.828278 101.294350,201.832504 
	C102.725967,198.971344 104.595657,197.687057 107.928329,197.785095 
	C114.914757,197.990616 121.916565,197.905258 128.905167,197.702194 
	C132.180374,197.607040 133.416962,198.885208 133.316437,202.068832 
	C133.188370,206.124863 134.417633,210.715149 128.097549,211.404892 
	C126.208603,211.611023 126.318130,213.581863 126.354065,215.073761 
	C126.658684,227.722122 127.092712,240.368362 127.272125,253.018295 
	C127.347687,258.345703 132.137085,255.638245 134.317673,257.509125 
	C134.317673,261.276855 134.263702,265.067871 134.335754,268.856476 
	C134.387817,271.593445 132.831421,272.356964 130.510635,272.124451 
	C121.712685,271.243011 112.902390,271.131287 104.078346,271.556732 
	C102.189934,271.647797 101.303734,270.714111 101.373962,268.850739 
	C101.449181,266.855286 101.849586,264.815765 101.566193,262.874573 
	C100.925156,258.483429 101.399887,255.210739 107.344398,255.985840 
	C107.344398,246.828903 107.344398,238.050934 107.344398,228.364365 
	C103.130447,237.252762 99.003044,245.412125 95.388138,253.792542 
	C93.287537,258.662354 90.312195,263.109436 88.980049,268.386963 
	C88.044113,272.094788 82.637245,272.458008 79.510315,269.166840 
	C75.772148,265.232330 73.864021,260.177063 71.630898,255.350235 
	C67.539001,246.505753 63.324654,237.729507 58.211624,228.822556 
	C58.211624,236.957703 58.272789,244.397705 58.182896,251.835892 
	C58.144493,255.013672 59.058033,257.059875 63.095734,256.905823 
z"/>
<path fill="#000000" opacity="1.000000" stroke="none" 
	d="
M310.266113,248.000305 
	C310.250916,254.663010 310.160767,260.826843 310.252747,266.987946 
	C310.300537,270.187042 308.985321,271.413055 305.773682,271.372467 
	C301.289062,271.315735 296.793701,271.560364 292.314331,271.851410 
	C289.694519,272.021637 288.455475,270.310791 287.068176,268.639252 
	C275.701202,254.943146 264.204132,241.350174 253.600479,226.135788 
	C253.600479,236.711563 253.600479,246.672577 253.600479,256.354218 
	C254.933716,257.679962 256.093689,256.943298 257.186584,256.805969 
	C259.882935,256.467102 261.281647,257.360687 261.168274,260.316833 
	C261.035339,263.782928 261.137177,267.258057 261.137177,272.020325 
	C251.296722,272.020325 241.873016,272.028259 232.449371,272.011169 
	C231.147018,272.008820 230.049606,271.371429 229.935257,270.051758 
	C229.605316,266.244080 229.376648,262.422882 229.280762,258.602631 
	C229.252701,257.485107 230.316040,256.838593 231.398666,256.931519 
	C236.022079,257.328430 235.938446,254.193726 235.913269,251.065170 
	C235.823471,239.906631 235.618637,228.747208 235.705475,217.590042 
	C235.736786,213.564636 235.397110,210.443863 230.356110,211.351166 
	C230.024902,210.851822 229.702332,210.589020 229.685013,210.307449 
	C228.756393,195.198257 227.537994,198.948517 241.159866,197.454819 
	C254.224152,196.022232 262.394012,200.457626 269.194794,211.528549 
	C275.315094,221.491760 283.631989,230.105637 291.644012,240.146866 
	C291.644012,230.941147 291.650543,222.700424 291.639435,214.459732 
	C291.636688,212.408981 290.488129,211.250946 288.520538,211.415970 
	C284.105133,211.786316 283.656403,209.150070 283.824860,205.760254 
	C283.947388,203.294388 283.848816,200.817520 283.848816,198.119659 
	C288.701721,197.158890 293.335205,197.923920 297.929443,197.788223 
	C301.591095,197.680069 305.257874,197.760422 308.921326,197.696152 
	C317.331055,197.548630 319.205994,199.984268 317.276672,208.404709 
	C316.876373,210.151993 315.939362,211.167755 314.266968,211.143570 
	C310.302704,211.086258 310.303375,213.651917 310.313873,216.520386 
	C310.351654,226.846817 310.290466,237.173630 310.266113,248.000305 
z"/>
<path fill="#000000" opacity="1.000000" stroke="none" 
	d="
M210.131989,249.934952 
	C207.945129,252.508560 208.548218,254.408783 210.737030,256.152344 
	C212.428497,257.499725 214.042053,258.944427 215.719269,260.310242 
	C217.359055,261.645569 219.742004,261.880920 221.479645,264.145203 
	C217.816849,268.403107 213.765411,271.911530 208.306641,273.193726 
	C205.036133,273.961914 203.159729,271.218658 201.440964,269.026123 
	C198.550262,265.338593 196.167892,264.693146 192.110535,268.120667 
	C183.148315,275.691650 164.997131,275.968201 155.376648,269.361603 
	C141.291122,259.688782 141.304398,240.597458 155.624649,230.687576 
	C158.814407,228.480164 159.558121,226.821060 157.957367,223.106384 
	C153.285614,212.265182 158.302155,201.219299 169.490768,196.667801 
	C180.605865,192.146210 192.862274,196.771515 197.169525,207.310287 
	C199.918213,214.035614 198.019409,220.092667 193.489685,225.353607 
	C191.234604,227.972687 188.501465,230.180161 184.983185,233.526199 
	C188.090820,236.233978 191.043442,238.873322 194.075516,241.418015 
	C195.412277,242.539886 196.970764,243.316422 198.504272,241.718781 
	C199.782715,240.386887 200.798050,239.038513 200.038040,236.865387 
	C197.194626,228.735138 198.422287,226.954865 206.692810,226.836700 
	C211.521774,226.767715 216.351120,226.719437 221.180466,226.688766 
	C221.482254,226.686844 221.785538,226.919846 222.898361,227.374817 
	C218.675842,234.842148 214.493408,242.238571 210.131989,249.934952 
M185.177856,254.738190 
	C180.303345,250.039200 175.434280,245.334534 170.548462,240.647324 
	C169.811768,239.940521 169.021378,239.519196 167.877167,239.941101 
	C163.726746,241.471466 161.219177,247.269211 162.915268,251.578644 
	C166.392487,260.413544 177.392471,262.291168 185.177856,254.738190 
M175.514847,209.098434 
	C174.150589,209.799637 173.097366,210.819305 172.258743,212.107147 
	C170.515335,214.784393 171.887558,216.948898 173.550003,218.856842 
	C174.784363,220.273453 176.179047,222.413528 178.506393,220.979904 
	C181.227798,219.303558 184.055435,217.000153 183.194489,213.503464 
	C182.426178,210.382996 180.135071,207.909439 175.514847,209.098434 
z"/>
<path fill="#000000" opacity="1.000000" stroke="none" 
	d="
M291.366699,303.242157 
	C291.166718,297.026123 291.020111,291.226044 290.673157,285.437958 
	C290.494354,282.455261 291.673065,281.019958 294.632538,281.194611 
	C297.281586,281.350952 299.969696,281.403961 302.557343,281.919952 
	C307.246948,282.855072 308.644958,285.214081 307.137634,289.704071 
	C306.465332,291.706726 306.494019,293.119690 308.171204,294.534760 
	C311.654388,297.473633 310.391388,300.412292 307.815826,303.076385 
	C304.899750,306.092743 295.103271,306.355743 291.366699,303.242157 
M295.587463,297.074005 
	C294.990692,302.720276 299.529938,300.592773 302.036682,301.082733 
	C303.928436,301.452515 305.022919,299.940460 304.672241,297.905151 
	C303.985535,293.919403 301.111572,294.924500 298.528320,295.271301 
	C297.534912,295.404694 296.574341,295.563416 295.587463,297.074005 
M302.991852,287.618408 
	C302.386108,285.322174 300.530060,285.325684 298.704315,285.306274 
	C296.984589,285.287994 295.359589,285.409424 295.293549,287.748657 
	C295.224792,290.185913 296.643402,290.789734 298.747101,290.709351 
	C300.599823,290.638489 302.412354,290.590149 302.991852,287.618408 
z"/>
<path fill="#000000" opacity="1.000000" stroke="none" 
	d="
M200.142303,290.210632 
	C200.160355,294.341675 200.213318,298.003448 200.163574,301.663818 
	C200.146042,302.953827 200.246597,304.472260 198.571243,304.951630 
	C197.253662,305.328613 196.460571,304.357880 195.562683,303.594971 
	C191.657959,300.277313 187.710861,297.009521 184.240417,294.109100 
	C183.511520,296.721191 185.273788,301.129547 183.689606,305.228180 
	C179.601456,303.656677 177.967133,290.842163 180.653259,281.246307 
	C187.584488,283.426727 189.343994,291.036224 195.807556,295.346405 
	C195.807556,291.409241 195.894287,288.203400 195.783966,285.004364 
	C195.665558,281.570129 197.116425,280.878571 200.136780,282.278870 
	C200.136780,284.785278 200.136780,287.263062 200.142303,290.210632 
z"/>
<path fill="#000000" opacity="1.000000" stroke="none" 
	d="
M40.814072,287.152832 
	C39.921848,281.769348 42.320644,280.411896 46.722023,281.174561 
	C48.841183,281.541748 51.026154,281.653198 53.083218,282.230194 
	C58.215652,283.669861 61.509762,288.320557 61.207783,293.370972 
	C60.891842,298.654877 56.916050,303.317108 51.900604,304.284973 
	C41.157890,306.358154 40.879120,306.124084 40.863602,295.092072 
	C40.860104,292.604828 40.835499,290.117554 40.814072,287.152832 
M45.199440,295.289124 
	C45.489372,300.759644 48.303459,302.213196 53.229385,299.441895 
	C56.963490,297.341125 57.392712,293.924164 56.302143,290.380005 
	C55.092331,286.448273 51.581284,285.127045 47.965446,285.559265 
	C43.677490,286.071777 45.737991,289.934540 45.224072,292.403198 
	C45.091511,293.039948 45.200386,293.726990 45.199440,295.289124 
z"/>
<path fill="#000000" opacity="1.000000" stroke="none" 
	d="
M160.801987,286.382629 
	C155.954407,284.158844 153.417709,286.580902 151.811371,290.303436 
	C150.029922,294.431732 151.972061,298.474976 156.335999,300.588684 
	C159.008255,301.883026 161.161880,301.955231 162.011307,298.506287 
	C161.832397,298.139709 161.769257,297.719727 161.541122,297.590118 
	C160.091278,296.766296 157.531387,297.016510 158.047745,294.290070 
	C158.372452,292.575470 160.012039,292.699188 161.308258,292.731781 
	C163.537323,292.787872 166.416611,292.031403 166.945221,295.308746 
	C167.387009,298.047943 168.401398,301.551575 166.341492,303.479187 
	C163.396896,306.234650 159.083145,305.835907 155.362000,304.987885 
	C149.559875,303.665619 145.189758,295.817657 146.872635,290.510284 
	C148.961823,283.921570 155.969955,280.054932 162.245087,282.119293 
	C163.766510,282.619781 165.982239,283.110077 165.577942,285.175262 
	C165.092545,287.654755 163.002365,287.221375 160.801987,286.382629 
z"/>
<path fill="#000000" opacity="1.000000" stroke="none" 
	d="
M84.054382,290.686523 
	C85.851967,290.932068 87.893692,290.406311 87.792801,292.649261 
	C87.714058,294.399719 85.974312,294.258942 84.675133,294.341858 
	C83.516136,294.415771 82.347626,294.348206 81.189903,294.432983 
	C79.138062,294.583191 78.366501,295.829742 78.342476,297.783508 
	C78.315430,299.982849 79.573029,300.471619 81.488556,300.715668 
	C84.417175,301.088806 88.261971,299.362762 90.050911,304.345886 
	C85.261169,305.789795 80.682396,305.128387 76.178383,304.884247 
	C74.331802,304.784149 74.000984,303.042694 73.997459,301.480530 
	C73.984695,295.834534 74.003372,290.188263 74.056381,284.542511 
	C74.068901,283.209412 74.143707,281.460052 75.713959,281.284332 
	C80.324593,280.768494 85.022568,279.915070 89.917763,281.752960 
	C88.335815,285.194733 85.737450,284.083252 83.653214,284.339783 
	C81.495117,284.605377 78.615852,283.614319 78.420883,287.258148 
	C78.206299,291.268646 81.229362,290.537292 84.054382,290.686523 
z"/>
<path fill="#000000" opacity="1.000000" stroke="none" 
	d="
M259.598022,291.657227 
	C261.754059,288.157959 262.140320,284.143524 265.634644,280.286469 
	C269.334686,288.899139 274.417206,295.996277 276.732910,304.461639 
	C273.429535,305.968567 272.501678,304.321472 271.439728,302.455261 
	C269.096466,298.337433 262.507019,298.408478 260.345306,302.681702 
	C259.403839,304.542786 258.669159,306.131683 256.419464,305.101410 
	C254.239868,304.103180 255.365845,302.172821 255.871338,300.744293 
	C256.919891,297.781097 258.242950,294.915070 259.598022,291.657227 
M265.682556,289.711212 
	C265.562347,289.414917 265.462158,289.107025 265.303558,288.832947 
	C265.275024,288.783600 264.887482,288.835297 264.865082,288.904694 
	C264.191193,290.992523 262.583527,292.817535 262.865509,295.249176 
	C264.650543,296.015808 266.248108,296.711060 268.001495,295.651947 
	C268.177704,293.398163 266.193726,292.149170 265.682556,289.711212 
z"/>
<path fill="#000000" opacity="1.000000" stroke="none" 
	d="
M116.150177,293.878052 
	C118.600647,299.197815 117.191551,303.936523 113.077621,305.406891 
	C108.892235,306.902740 104.373512,304.386383 102.782509,299.596191 
	C104.924683,298.235687 106.510414,299.883606 108.207764,300.655548 
	C109.776154,301.368805 111.431541,302.336456 112.378128,300.082458 
	C113.136444,298.276703 112.148224,296.847870 110.521339,295.967773 
	C109.358459,295.338654 108.069298,294.941650 106.911850,294.304199 
	C104.125412,292.769653 101.971809,290.751373 102.712563,287.178772 
	C103.316071,284.268097 104.721649,281.643616 107.795723,280.984680 
	C111.229637,280.248566 114.608856,280.616577 116.875229,284.102203 
	C115.040283,286.093872 112.948517,285.144501 111.084549,285.300690 
	C109.581718,285.426605 107.931129,285.275665 107.503517,287.211548 
	C107.054276,289.245361 108.365082,290.233490 110.007790,290.959167 
	C111.970833,291.826324 113.918304,292.728729 116.150177,293.878052 
z"/>
<path fill="#000000" opacity="1.000000" stroke="none" 
	d="
M240.794708,305.353271 
	C229.961014,305.307587 229.820129,305.303253 230.134796,295.068481 
	C230.277863,290.414886 229.011337,285.555481 231.078339,281.038147 
	C234.298843,281.268890 234.069641,283.401062 234.066360,285.110474 
	C234.058731,289.101532 234.045746,293.113159 233.640289,297.076080 
	C233.336502,300.045319 234.455078,301.065216 237.210846,300.923187 
	C238.539627,300.854736 239.876419,300.828766 241.204605,300.890533 
	C242.851868,300.967224 244.909256,300.875488 244.960297,303.156799 
	C245.015198,305.611115 242.836197,305.165161 240.794708,305.353271 
z"/>
<path fill="#000000" opacity="1.000000" stroke="none" 
	d="
M134.245270,292.041443 
	C134.232681,295.846954 134.254852,299.165253 134.187592,302.481750 
	C134.156921,303.993835 133.420059,305.081635 131.756363,304.979584 
	C130.254913,304.887482 129.950226,303.640778 129.939087,302.454437 
	C129.881424,296.317200 129.863892,290.179199 129.893066,284.041779 
	C129.898682,282.858887 130.204773,281.578583 131.715851,281.536316 
	C133.329239,281.491150 134.106216,282.585358 134.159332,284.089417 
	C134.247116,286.575348 134.221405,289.065277 134.245270,292.041443 
z"/>
</svg>