<svg version="1.1" id="Layer_1" xmlns="http://www.w3.org/2000/svg" xmlns:xlink="http://www.w3.org/1999/xlink" x="0px" y="0px"
	 width="100%" viewBox="0 0 384 384" enable-background="new 0 0 384 384" xml:space="preserve">
<path fill="#000000" opacity="1.000000" stroke="none" 
	d="
M174.684387,209.835571 
	C174.481445,204.391190 177.487213,199.752441 176.294052,193.978653 
	C173.676880,197.320129 172.370056,200.756836 171.481293,204.261200 
	C166.174759,225.184753 160.720810,246.081604 157.539093,267.473175 
	C156.977249,271.250580 156.637314,275.061523 156.221848,278.859955 
	C155.962341,281.232697 154.752991,282.347748 152.289780,282.393494 
	C148.796539,282.458282 145.304123,282.712433 141.817917,282.973297 
	C138.070496,283.253632 136.203613,282.026581 135.537598,277.873535 
	C131.160614,250.580338 125.285751,223.619583 116.468765,197.370865 
	C115.965111,195.871460 115.945618,194.077835 113.797707,192.485031 
	C116.484276,223.000519 125.001503,251.879974 129.920776,282.312317 
	C119.164467,281.814148 108.567802,285.125824 99.145126,282.096924 
	C86.712227,278.100403 74.146545,272.914459 66.120110,261.076874 
	C57.815239,248.828659 53.542397,235.528076 56.216370,220.914536 
	C58.254345,209.776733 63.039005,199.419800 68.498207,189.439651 
	C71.819443,183.367966 75.820648,177.528107 75.246117,169.984741 
	C74.659210,162.278870 69.767632,155.977570 62.322845,154.189056 
	C59.577358,153.529480 56.754543,153.197052 53.997234,152.580261 
	C48.676765,151.390045 47.405586,148.351532 50.088345,143.448669 
	C53.978622,136.339005 62.446156,133.597549 71.486488,136.520782 
	C83.633934,140.448685 91.196854,151.108810 92.352394,165.443359 
	C93.162186,175.488876 90.032455,184.475250 85.633331,193.206604 
	C81.442101,201.525269 76.446945,209.502609 74.249847,218.691299 
	C71.347466,230.829590 71.249245,242.486526 80.655571,252.324783 
	C82.969963,254.745453 85.571190,256.544464 89.385452,257.588379 
	C88.365929,250.702347 86.361641,244.700439 86.637894,238.291199 
	C87.131218,226.846115 89.930733,216.858734 101.186668,211.349136 
	C104.200386,209.873978 104.041969,206.947296 104.249947,204.427750 
	C105.512283,189.134674 108.761002,174.226791 112.710960,159.452255 
	C113.784531,155.436646 115.224915,151.520126 116.448921,147.543365 
	C117.258186,144.914108 118.822212,142.341660 115.908699,139.790054 
	C112.857658,137.118027 110.121132,134.114243 105.450439,135.593750 
	C102.752769,136.448257 100.046890,137.296722 97.301773,137.973816 
	C95.742157,138.358521 93.814445,138.951569 92.997032,136.824631 
	C92.137978,134.589340 93.662392,133.270294 95.466980,132.628357 
	C99.818680,131.080383 104.249733,129.755478 108.942810,128.246048 
	C104.791199,123.814545 99.993950,126.799309 95.655434,126.472672 
	C94.360016,126.375145 93.029221,126.878365 91.704926,127.003151 
	C89.728600,127.189354 88.503937,126.261017 88.207413,124.285912 
	C87.926361,122.413780 88.463829,121.117714 90.554138,120.576088 
	C93.499001,119.813034 96.478836,119.721375 99.477501,119.635216 
	C100.869957,119.595207 102.339088,119.395134 102.366096,117.622551 
	C102.391571,115.950623 101.059990,115.401657 99.624313,115.361214 
	C96.626633,115.276749 93.626183,115.279457 90.626793,115.270363 
	C88.336311,115.263412 86.744011,114.586502 86.759415,111.875168 
	C86.774139,109.284149 88.460930,109.060890 90.431831,108.886177 
	C98.798042,108.144569 98.365601,108.088600 98.945694,100.042999 
	C99.961998,85.947296 99.806114,71.824089 100.161102,57.596554 
	C104.201675,56.678375 107.234879,58.842224 110.410149,59.905006 
	C114.498764,61.273495 118.949326,62.515652 122.246658,65.089767 
	C128.649597,70.088310 135.086182,72.278931 143.073685,69.717239 
	C147.641632,68.252243 152.388840,69.308937 156.802490,70.834305 
	C160.274368,72.034195 162.849396,71.100708 165.544403,69.035530 
	C173.459396,62.970264 182.692551,59.790649 191.852310,56.735168 
	C193.842300,58.811752 193.240768,60.911354 193.252151,62.804531 
	C193.333206,76.303192 193.464081,89.804504 193.259827,103.300133 
	C193.198120,107.377052 194.374832,108.874969 198.567642,108.929962 
	C200.933868,108.961006 205.677277,106.946068 205.211487,112.094589 
	C204.788162,116.773689 200.635834,114.406746 197.959045,114.589508 
	C196.969315,114.657089 195.962296,114.448700 194.969208,114.495163 
	C193.146866,114.580429 192.274002,115.653229 192.298264,117.428078 
	C192.322495,119.200684 193.555511,119.578400 195.013992,119.630432 
	C196.679413,119.689842 198.345749,119.729683 200.010254,119.808380 
	C202.419235,119.922279 205.120560,120.062973 204.896011,123.349724 
	C204.659988,126.803810 201.931030,126.180008 199.568832,125.931755 
	C197.255249,125.688614 194.930984,125.468460 192.607605,125.419418 
	C190.407730,125.372993 188.338028,125.841896 187.083832,127.948204 
	C190.628067,132.253464 200.100876,128.790207 200.271927,138.118561 
	C195.540466,138.628265 191.779938,136.607285 187.824051,135.713394 
	C183.634277,134.766617 176.031708,138.145187 174.268921,141.818970 
	C173.673676,143.059494 174.322800,144.069397 174.736481,145.140305 
	C181.789032,163.397079 183.916290,182.489395 184.266373,201.866409 
	C184.314011,204.502731 184.596741,206.839264 187.012283,208.392365 
	C208.485718,222.199005 207.944733,250.241898 193.044189,270.067657 
	C194.926865,272.369141 196.718460,274.921570 197.718628,277.922028 
	C198.608734,280.592255 197.883148,282.342987 194.960297,282.368225 
	C184.341263,282.459961 173.720978,282.404419 162.746582,282.404419 
	C161.985168,273.692047 164.905548,266.139404 166.227951,258.385742 
	C168.964951,242.337646 171.845490,226.314041 174.684387,209.835571 
M133.443115,78.711128 
	C139.423401,76.654175 145.615875,75.669281 151.952057,75.410583 
	C132.273895,70.760902 108.149216,82.426109 107.805504,98.252274 
	C114.455551,86.548210 122.354904,83.462830 133.443115,78.711128 
M171.530579,101.402191 
	C165.512222,102.515358 160.762192,105.713722 156.324417,109.869316 
	C162.588104,115.059128 172.843185,111.883690 174.512390,104.845062 
	C174.960434,102.955788 174.624664,101.513397 171.530579,101.402191 
M123.465897,111.235680 
	C127.660378,113.630699 131.550323,113.160637 135.311142,110.223198 
	C131.662659,104.901566 122.793579,101.533470 117.765511,103.390144 
	C118.940109,107.625221 118.992462,107.702110 123.465897,111.235680 
M147.204544,118.954559 
	C145.140976,119.219574 142.886414,118.358704 141.035782,119.908180 
	C142.464890,126.261871 146.746414,130.367508 153.674149,131.309616 
	C148.290253,128.078690 148.211945,124.324295 151.281174,120.491196 
	C150.371552,118.855125 149.104706,119.116867 147.204544,118.954559 
z"/>
<path fill="#000000" opacity="1.000000" stroke="none" 
	d="
M327.984009,277.095245 
	C315.172607,285.566956 301.176758,283.119202 287.502533,282.916901 
	C284.373444,282.870605 283.840515,281.327454 284.267700,278.327484 
	C286.499329,262.655151 291.205139,247.548172 294.514832,232.127151 
	C296.916870,220.935074 299.132172,209.702942 301.008514,198.388840 
	C294.382660,212.058472 289.914337,226.401794 286.271790,241.059799 
	C283.265259,253.158264 279.783295,265.143768 278.677368,277.624908 
	C278.322815,281.626221 276.691132,283.391846 272.299347,283.202484 
	C259.582947,282.654175 261.735962,285.143188 258.931641,271.203156 
	C254.338058,248.368698 249.506714,225.622284 242.784286,203.306458 
	C242.258621,201.561462 241.946671,199.758347 240.077927,197.989868 
	C239.686600,206.554337 241.392197,214.458023 242.854645,222.280716 
	C246.268875,240.543472 250.231079,258.703613 253.948212,276.910004 
	C254.989166,282.008575 254.209274,282.812622 249.135712,282.539795 
	C243.811264,282.253418 238.489853,282.295258 233.161057,282.766998 
	C229.576920,283.084320 225.896118,283.608521 222.128754,281.875031 
	C222.121399,278.088440 223.298294,274.704712 225.766800,272.274597 
	C229.109467,268.983887 228.070374,266.620392 225.693909,263.366547 
	C218.223404,253.137787 216.117920,241.645782 218.664200,229.264740 
	C219.845276,223.521820 223.401642,219.372269 227.935150,216.099716 
	C232.418518,212.863388 234.240860,208.931870 233.815338,203.315262 
	C232.885773,191.045670 235.300125,179.223160 239.241440,167.593536 
	C240.663086,163.398682 240.853546,158.777573 241.517029,154.337708 
	C242.006851,151.059921 243.513535,149.689728 246.982239,150.571045 
	C251.333206,151.676544 255.842453,152.249649 259.894440,154.306015 
	C261.449738,155.095322 263.579102,155.718155 263.515656,157.981384 
	C263.452667,160.228333 261.717743,161.519424 259.887329,162.376556 
	C258.112335,163.207718 256.172852,163.687637 253.900421,164.459442 
	C256.441132,167.966019 260.778961,165.301849 263.366425,167.958344 
	C265.660461,170.313599 266.993591,173.613098 270.685699,175.396515 
	C274.174774,172.409271 276.413422,167.924179 280.484650,165.917328 
	C280.385437,164.944427 280.459320,164.551163 280.303345,164.301437 
	C275.188263,156.111206 275.358734,155.579300 284.469269,152.214218 
	C287.592499,151.060593 290.804901,150.129822 293.871094,148.845459 
	C296.852356,147.596649 298.174408,148.828903 298.949066,151.545044 
	C303.916626,168.962250 308.688843,186.427170 311.072876,204.429703 
	C311.401031,206.907730 312.270355,208.750778 314.172668,210.392746 
	C329.348785,223.491974 332.889404,237.997162 325.661163,256.877655 
	C325.267395,257.906250 324.395203,258.908325 325.422577,260.692963 
	C330.281891,259.065674 333.689117,255.453430 336.459320,251.487106 
	C342.377655,243.013428 343.661011,233.620270 341.703247,223.436020 
	C339.615448,212.575104 334.601471,203.077377 329.302582,193.638962 
	C325.780609,187.365585 323.000366,180.970139 321.973816,173.660812 
	C319.666779,157.233978 332.745972,137.647629 348.887207,134.178772 
	C357.209259,132.390320 365.177856,137.633301 365.345123,145.007324 
	C365.475708,150.764481 364.225647,152.146042 358.431305,152.116989 
	C353.703339,152.093292 349.259430,152.168427 345.541443,156.010605 
	C338.641083,163.141434 337.198364,171.441422 341.699615,181.273407 
	C346.403748,191.548508 352.239807,201.256363 355.569275,212.219025 
	C363.836823,239.441132 355.208282,261.793060 330.515289,275.741730 
	C329.790314,276.151245 329.052734,276.538513 327.984009,277.095245 
z"/>
<path fill="#000000" opacity="1.000000" stroke="none" 
	d="
M314.291168,87.000061 
	C314.293365,92.830437 314.575531,98.179916 314.214203,103.485565 
	C313.895142,108.170738 315.257385,110.441505 320.250031,109.734116 
	C321.714966,109.526550 323.246521,109.694046 324.739166,109.803802 
	C326.252411,109.915070 327.929840,110.075043 327.974579,112.118073 
	C328.014465,113.938644 326.601410,114.892319 325.095825,115.038521 
	C322.123169,115.327171 319.115387,115.304970 316.121887,115.311378 
	C313.724274,115.316513 311.900665,115.884850 311.631409,119.298553 
	C315.170715,119.780754 318.544342,120.345512 321.941010,120.665413 
	C324.127594,120.871338 325.432251,121.621597 325.203003,124.021454 
	C324.972534,126.434128 323.167236,126.229500 321.492737,126.254547 
	C317.515076,126.314049 313.595428,124.597626 309.593964,125.785187 
	C307.772461,126.325775 305.591888,126.090805 304.077637,128.218109 
	C307.740845,130.190277 311.778839,130.345230 315.519135,131.425110 
	C319.137817,132.469894 319.649261,134.615479 318.827759,137.927292 
	C314.585999,137.835602 311.056732,136.226501 307.469177,135.120010 
	C304.177765,134.104858 301.961975,134.656525 299.496429,137.146179 
	C292.329407,144.383316 283.027161,148.457535 273.391541,149.818008 
	C261.960876,151.431961 251.072617,147.198746 242.634201,139.433426 
	C237.502853,134.711380 233.239990,133.458008 227.264084,136.592834 
	C225.589233,137.471405 223.661560,138.363876 220.654648,137.453110 
	C222.047668,129.155045 230.912048,131.981491 234.962463,127.716209 
	C233.251587,124.963615 230.626282,125.380531 228.025909,125.618904 
	C225.048737,125.891830 222.067810,126.162094 219.082367,126.291138 
	C217.460999,126.361206 216.102051,125.748924 215.891495,123.854172 
	C215.651764,121.697037 216.925568,120.900490 218.822815,120.647751 
	C222.242828,120.192146 225.658218,119.701836 229.312424,119.193024 
	C229.282761,115.891037 227.102234,115.561790 224.963028,115.417351 
	C222.473999,115.249298 219.968689,115.339096 217.473190,115.244499 
	C215.966736,115.187393 214.881409,114.499641 214.939911,112.814514 
	C214.991562,111.326202 216.117828,111.015068 217.342133,110.804199 
	C220.400223,110.277496 224.404022,111.283485 226.221466,108.600830 
	C228.276672,105.567253 226.921844,101.470207 226.930283,97.835297 
	C226.961136,84.537750 226.942490,71.240082 226.942490,57.833828 
	C229.002609,56.771248 230.780563,57.948853 232.557968,58.624344 
	C238.972427,61.062130 245.051666,64.154633 250.438538,68.449059 
	C252.974915,70.471100 255.541656,71.169006 258.772095,70.194962 
	C266.169434,67.964516 273.636597,69.155403 281.020905,70.392883 
	C284.354553,70.951538 287.140869,70.602112 289.905273,68.488670 
	C294.957428,64.626183 300.713806,61.926540 306.476990,59.309856 
	C313.437622,56.149490 314.151947,56.578159 314.251984,64.012794 
	C314.352814,71.507385 314.285156,79.004242 314.291168,87.000061 
M238.437103,89.943459 
	C247.097107,80.415390 258.382629,76.622246 271.800903,75.417603 
	C253.883423,71.048180 234.370728,80.569695 230.791931,100.436844 
	C232.605103,96.682281 234.923431,93.304985 238.437103,89.943459 
M283.779419,103.989456 
	C281.920776,105.723160 279.208313,106.799179 279.085144,109.838219 
	C284.569946,115.731163 294.326233,112.323380 296.143158,104.424797 
	C296.616150,102.368553 297.195496,100.281570 294.642914,99.452400 
	C291.974915,98.585716 290.171387,99.860977 289.478424,102.585808 
	C289.098816,104.078400 289.566498,106.020966 288.249817,106.328140 
	C285.256500,106.667511 286.742249,102.960434 283.779419,103.989456 
M255.331680,104.577553 
	C253.834732,104.234261 252.586929,105.906250 250.777100,105.008217 
	C250.398499,104.140457 249.982178,103.074043 249.476303,102.051949 
	C248.623779,100.329498 247.507950,98.773598 245.287994,99.355186 
	C242.955658,99.966232 243.110275,102.004189 243.179443,103.844643 
	C243.387100,109.370201 248.148102,113.382607 253.658066,112.587799 
	C255.795135,112.279526 258.358124,111.821030 259.184021,109.758682 
	C260.196106,107.231461 257.549591,106.166756 255.331680,104.577553 
M274.614624,130.223175 
	C268.273712,127.377800 272.279175,123.377434 273.987122,119.410606 
	C270.818604,119.611031 268.052551,118.102867 265.770355,120.117134 
	C266.353058,126.860771 270.523621,129.871048 276.246674,131.371307 
	C275.869080,131.079971 275.491516,130.788635 274.614624,130.223175 
z"/>
<path fill="#000000" opacity="1.000000" stroke="none" 
	d="
M324.674988,319.770020 
	C324.684052,313.134308 324.753540,306.969299 324.659302,300.806732 
	C324.618103,298.111694 325.534241,296.787476 328.404480,296.894501 
	C332.714081,297.055176 337.073517,296.319061 341.306488,297.702148 
	C347.889435,299.853058 349.775391,306.472687 345.049896,311.865021 
	C347.357391,314.570190 351.147827,316.944397 348.527191,321.480225 
	C345.948486,325.943512 341.894653,328.018677 336.965240,328.119324 
	C333.038300,328.199554 329.041260,328.791870 325.148499,327.858154 
	C324.103424,325.202637 324.878845,322.689697 324.674988,319.770020 
M334.842285,314.803772 
	C332.236267,315.188629 331.049286,316.661499 331.466522,319.296173 
	C331.762085,321.162323 333.125061,321.585358 334.753815,321.615784 
	C337.357391,321.664429 339.787109,321.260529 341.096497,318.655396 
	C341.751251,317.352692 340.973145,316.292480 339.839386,315.832672 
	C338.483215,315.282654 336.984467,315.084229 334.842285,314.803772 
M337.601288,308.192047 
	C339.019714,307.437317 341.309448,306.767700 340.046661,304.751526 
	C338.489868,302.266083 335.440063,302.859528 333.197906,303.467072 
	C330.225555,304.272491 331.365295,306.726013 331.851074,308.677673 
	C333.755798,309.486053 335.320648,308.617981 337.601288,308.192047 
z"/>
<path fill="#000000" opacity="1.000000" stroke="none" 
	d="
M223.229614,314.051514 
	C223.242020,317.591614 223.253891,320.756866 223.270386,323.922089 
	C223.281921,326.137085 222.352173,327.302399 219.969131,327.252808 
	C217.604675,327.203613 216.778229,325.987091 216.708847,323.806030 
	C216.476059,316.488403 216.124695,309.173981 215.964188,301.855133 
	C215.926102,300.118896 215.579575,297.832245 217.691895,297.035004 
	C219.903564,296.200256 222.026474,297.168976 223.569244,298.847961 
	C227.386917,303.002716 231.085800,307.266632 234.965866,311.637024 
	C235.705322,307.993591 235.683670,304.431702 235.560730,300.860229 
	C235.490387,298.817108 235.254181,296.697662 238.383392,296.769684 
	C240.943207,296.828552 241.255447,298.440430 241.328445,300.456635 
	C241.599487,307.943756 241.969955,315.427490 242.198929,322.915710 
	C242.246506,324.471771 242.853516,326.507172 240.807434,327.293243 
	C238.827835,328.053711 237.211105,326.891449 235.986267,325.464203 
	C233.168549,322.180969 230.452118,318.810150 227.723145,315.451691 
	C226.584976,314.050995 225.815140,312.311615 224.042633,311.511841 
	C222.976791,311.968628 223.357254,312.915649 223.229614,314.051514 
z"/>
<path fill="#000000" opacity="1.000000" stroke="none" 
	d="
M183.028473,320.836365 
	C178.595795,314.233337 177.497040,311.554413 184.478622,302.992706 
	C189.700745,296.588684 194.260422,294.473663 200.267883,296.585541 
	C203.130310,297.591858 206.855331,298.969635 205.721008,302.465332 
	C204.613174,305.879364 200.926880,304.431183 198.341614,303.434448 
	C194.269699,301.864532 191.366425,303.472748 189.461288,306.778381 
	C187.454147,310.260895 185.728821,314.242340 188.818970,317.934937 
	C191.411774,321.033203 194.930679,322.546875 199.109055,321.180664 
	C200.212585,320.819794 201.223068,320.207214 201.514801,318.974060 
	C201.110596,317.511719 199.870407,317.929138 198.990555,317.753082 
	C196.447388,317.244171 195.178894,315.690277 195.339218,313.187439 
	C195.532166,310.175323 197.979904,310.534149 199.861237,310.746735 
	C202.684219,311.065704 206.465805,309.226410 208.102936,312.499695 
	C210.014572,316.321869 209.214920,320.655975 208.093887,324.730682 
	C207.945404,325.270447 207.332962,325.785095 206.809052,326.103607 
	C199.128632,330.773560 188.831512,328.594391 183.028473,320.836365 
z"/>
<path fill="#000000" opacity="1.000000" stroke="none" 
	d="
M106.097328,309.492676 
	C107.737579,321.188049 95.945297,330.301971 82.278206,328.113678 
	C80.398529,327.812744 79.748772,326.465820 80.033371,324.856537 
	C81.520454,316.447906 79.709785,307.969086 80.663101,299.550659 
	C80.888885,297.556793 81.264610,296.112335 83.660965,295.771576 
	C93.854385,294.322266 102.699043,299.533081 106.097328,309.492676 
M86.334457,313.447815 
	C87.186325,315.984192 84.185013,320.438110 89.574799,320.683014 
	C93.471130,320.860107 96.978127,319.138824 98.264526,315.339050 
	C99.542343,311.564667 98.717239,307.736511 95.390091,305.018219 
	C93.387817,303.382355 90.887733,302.601868 88.420464,303.483215 
	C85.848473,304.402008 86.467407,306.987976 86.333435,309.059875 
	C86.259026,310.210602 86.328148,311.370575 86.334457,313.447815 
z"/>
<path fill="#000000" opacity="1.000000" stroke="none" 
	d="
M133.915436,298.051514 
	C134.491699,302.036530 132.489807,303.201111 129.324234,303.224762 
	C127.161255,303.240936 124.998322,303.285339 122.835831,303.336945 
	C121.023544,303.380219 119.392982,303.784058 119.494949,306.062592 
	C119.594139,308.278961 121.245529,308.623322 123.037964,308.648102 
	C125.367233,308.680267 127.697266,308.680450 130.025681,308.743011 
	C131.643646,308.786469 133.057693,309.199951 133.094559,311.207092 
	C133.128281,313.043884 131.999313,313.939941 130.339249,314.142120 
	C128.858337,314.322479 127.350655,314.271790 125.857323,314.364075 
	C123.347427,314.519104 120.326653,313.560852 120.226036,317.929108 
	C120.114578,322.767853 123.523453,321.459137 126.101715,321.672150 
	C127.921783,321.822479 129.771118,321.709503 131.573257,321.959778 
	C133.304535,322.200195 134.097076,323.482391 134.025742,325.181061 
	C133.951736,326.943481 132.623917,327.238739 131.216705,327.313019 
	C126.566895,327.558624 121.912529,327.733215 117.267464,328.046875 
	C114.713722,328.219360 113.676506,327.196930 113.624832,324.630676 
	C113.470863,316.985352 113.215599,309.341217 112.908508,301.700287 
	C112.762077,298.056885 113.660583,295.994690 117.992645,296.738373 
	C123.177284,297.628418 128.574341,295.566772 133.915436,298.051514 
z"/>
<path fill="#000000" opacity="1.000000" stroke="none" 
	d="
M309.572601,322.129883 
	C306.202057,320.785583 303.030792,321.477722 299.904510,321.363525 
	C298.172607,321.300232 296.840485,322.239563 296.639282,323.846436 
	C295.902924,329.727142 292.535095,327.966675 289.015594,326.866180 
	C289.223755,323.109558 291.385468,320.457336 292.666992,317.478546 
	C295.223663,311.535919 297.881195,305.636322 300.393280,299.675201 
	C301.051636,298.112976 301.324554,296.485016 303.597626,296.583557 
	C305.487671,296.665466 306.650909,297.437164 307.377716,299.205872 
	C311.148315,308.382172 314.982635,317.532257 318.875366,326.885223 
	C313.180389,330.484375 311.816986,325.846954 309.572601,322.129883 
M302.139160,310.839478 
	C301.713379,312.016022 300.633514,313.082794 301.525757,314.528717 
	C302.932129,315.146851 304.320526,315.275696 306.070526,314.167114 
	C305.701630,312.143829 305.461121,310.035126 303.486572,308.230286 
	C302.984039,309.154480 302.675568,309.721802 302.139160,310.839478 
z"/>
<path fill="#000000" opacity="1.000000" stroke="none" 
	d="
M160.252853,318.732178 
	C156.500366,329.130402 148.540283,331.436005 141.341049,324.654724 
	C139.862839,323.262360 138.863159,321.671631 139.936691,319.843445 
	C141.082001,317.893066 142.853302,319.100342 144.384705,319.600800 
	C147.082748,320.482544 150.323868,324.404266 152.392120,319.837555 
	C154.521027,315.136871 149.031982,315.480103 146.823166,314.206055 
	C139.464417,309.961304 138.436874,308.493042 140.559937,302.336792 
	C142.370483,297.086761 151.657974,293.973053 156.203354,297.093170 
	C158.280167,298.518738 158.979111,300.497833 157.884613,302.725861 
	C156.811157,304.910980 155.208466,303.783234 153.663208,303.057251 
	C151.592926,302.084595 149.132812,301.508118 148.145630,304.173920 
	C147.256851,306.574005 149.583206,307.613129 151.393356,308.439484 
	C155.810715,310.456238 160.594315,312.081665 160.252853,318.732178 
z"/>
<path fill="#000000" opacity="1.000000" stroke="none" 
	d="
M265.630005,307.015564 
	C265.667999,304.369263 265.700623,302.212311 265.726379,300.055267 
	C265.752747,297.847290 266.742706,296.730103 269.073303,296.734222 
	C271.465851,296.738434 272.283386,297.976379 272.283295,300.146973 
	C272.283051,304.959412 272.661560,309.802887 272.236908,314.575989 
	C271.769958,319.824463 273.953674,321.446899 278.798218,320.918793 
	C280.418243,320.742188 282.135132,320.909424 283.736237,321.252960 
	C285.440369,321.618591 286.030792,323.017639 285.874573,324.697815 
	C285.715210,326.411835 284.934784,327.428619 283.032227,327.415161 
	C277.427734,327.375427 271.822784,327.400940 265.621582,327.400940 
	C265.621582,320.365753 265.621582,313.935272 265.630005,307.015564 
z"/>
<path fill="#000000" opacity="1.000000" stroke="none" 
	d="
M172.433960,326.095947 
	C170.035004,328.407928 167.184464,329.614777 166.975250,325.510742 
	C166.487122,315.936005 166.819489,306.319489 166.819489,296.746643 
	C170.322525,296.313171 172.691681,297.036530 172.784592,300.293396 
	C173.026123,308.760284 174.008881,317.243408 172.433960,326.095947 
z"/>
</svg>